<?xml version='1.0' encoding='utf-8'?>
<svg xmlns:xlink="http://www.w3.org/1999/xlink" xmlns="http://www.w3.org/2000/svg" viewBox="0 0 387 432"> <defs> <linearGradient id="c"> <stop stop-color="#2b0000" offset="0"/> <stop stop-color="#2b0000" stop-opacity="0" offset="1"/> </linearGradient> <linearGradient id="d"> <stop stop-color="#c8b7b7" offset="0"/> <stop stop-color="#e3dbdb" offset="1"/> </linearGradient> <linearGradient id="e"> <stop stop-color="#c8b7b7" offset="0"/> <stop offset="1"/> </linearGradient> <linearGradient id="a"> <stop offset="0"/> <stop stop-opacity="0" offset="1"/> </linearGradient> <linearGradient id="b"> <stop stop-color="#b87a1f" offset="0"/> <stop stop-color="#e69425" offset=".5"/> <stop stop-color="#b87a1f" offset="1"/> </linearGradient> <linearGradient id="p" x1="478.86" x2="687.1" y1="381.12" y2="396.12" gradientUnits="userSpaceOnUse"> <stop stop-color="#e3dbdb" offset="0"/> <stop stop-color="#fff" offset=".91776"/> <stop stop-color="#e3dbdb" offset="1"/> </linearGradient> <linearGradient id="o" x1="686.86" x2="493.8" y1="436.6" y2="336.97" gradientUnits="userSpaceOnUse"> <stop stop-color="#f55" offset="0"/> <stop stop-color="#d40000" offset="1"/> </linearGradient> <linearGradient id="q" x1="114.92" x2="739.79" y1="500.16" y2="622.43" gradientTransform="matrix(-1.1596 .757 .70732 1.2411 843.67 -704.34)" gradientUnits="userSpaceOnUse" xlink:href="#c"/> <linearGradient id="n" x1="559.06" x2="576.29" y1="471.11" y2="566.13" gradientUnits="userSpaceOnUse" xlink:href="#e"/> <linearGradient id="m" x1="616.11" x2="610.53" y1="248.41" y2="285.59" gradientUnits="userSpaceOnUse" xlink:href="#c"/> <linearGradient id="l" x1="687.21" x2="632.05" y1="225.45" y2="295.9" gradientUnits="userSpaceOnUse" xlink:href="#d"/> <linearGradient id="k" x1="725.78" x2="531.13" y1="247.23" y2="382.52" gradientUnits="userSpaceOnUse" xlink:href="#d"/> <linearGradient id="j" x1="686.26" x2="755.2" y1="331.94" y2="100.32" gradientUnits="userSpaceOnUse" xlink:href="#e"/> <linearGradient id="i" x1="1996.6" x2="2021" y1="510.45" y2="518.69" gradientTransform="matrix(-.75943 .46603 .46603 .75943 1937.9 -1039)" gradientUnits="userSpaceOnUse" xlink:href="#a"/> <linearGradient id="h" x1="2007.9" x2="2018.4" y1="493.07" y2="498.63" gradientTransform="matrix(-.75943 .46603 .46603 .75943 1940.1 -1041.7)" gradientUnits="userSpaceOnUse" xlink:href="#b"/> <linearGradient id="g" x1="1990.7" x2="2020.8" y1="485.96" y2="504.54" gradientTransform="matrix(-.86303 .22158 .22158 .86303 2234.8 -594.3)" gradientUnits="userSpaceOnUse" xlink:href="#a"/> <linearGradient id="f" x1="1977.9" x2="1991.5" y1="506.59" y2="512.71" gradientTransform="matrix(-.86303 .22158 .22158 .86303 2234.8 -594.3)" gradientUnits="userSpaceOnUse" xlink:href="#b"/> </defs> <g transform="translate(-401.31 -185.3)"> <path d="m521.06 380.66c-0.48807 0.0344-0.96507 0.254-1.3125 0.65625-0.69503 0.80423-0.60786 2.0136 0.1875 2.7188l24.219 21.469-21.219-13.156c-0.90359-0.56002-2.0534-0.30244-2.625 0.59375s-0.32621 2.0419 0.5625 2.625l46.469 30.5 12.594 11.156c-21.196 7.9955-44.224 19.719-67.344 34.812-72.272 47.181-109.77 95.462-92.188 126.31s82.415 20.587 154.69-26.594c34.24-22.353 62.124-45.894 80.125-67.781l83 73.562c2.3554 2.0882 5.9424 1.7885 8-0.59375s1.8461-5.9733-0.5625-8l-85.188-71.688c1.7321-2.34 3.3276-4.6474 4.8125-6.9375l99.469 65.281c2.6318 1.7269 6.151 0.93517 7.8438-1.7188s0.95676-6.1853-1.7188-7.8438l-101.34-62.812c8.7828-16.095 10.759-30.587 4.2188-42.062-11.078-19.437-43.465-20.818-84-7.4062l-17.875-11.062-49.406-41.562c-0.40675-0.34221-0.91818-0.5032-1.4062-0.46875z" fill="url(#q)"/> <path d="m713.1 254.61-40.59 222.32s-13.51 14.715-22.14 19.373c-10.111 5.4566-21.826 7.6734-33.21 9.2251-16.148 2.2012-32.938 3.3262-48.893 0-12.807-2.67-25.618-7.6932-35.978-15.683-6.9773-5.3811-16.373-20.753-16.373-20.753l-37.055-172.21z" fill="url(#p)"/> <path d="m479.24 298.89 205.26 23.063 26.753-67.343-179.89-19.373z" fill="#e3dedb"/> <path d="m523.58095,344.10056c.0394.24261.0963.46882.15625.75 .34937,1.63761.66805,3.46879.71875,4.0625s1.19734.88 2.53125.625c1.78996-.34217 2.05291-.68477 1.0625-1.3125-1.07169-.67924-1.01909-.8628.21875-.875 .8525-.008 1.9775.40283 2.5.90625s2.0625,1.06593 3.4375,1.25 2.37589.69286 2.21875,1.125c-.30337.83427 2.21529,3.71875 3.25,3.71875 .33729,0 1.60054.9 2.78125,2 2.57077,2.39503 2.88065,2.4692 2.125.5-.31659-.825-.94657-1.5-1.375-1.5s-2.27184-1.56084-4.125-3.46875-4.27793-3.61076-5.375-3.78125-2.45-.56322-3-.875c-2.21192-1.25389-4.56667-1.80384-4.03125-.9375 .31254.50569.12147,1.18579-.4375,1.53125s-1.05165.25746-1.09375-.1875c-.12309-1.30154-.41505-2.5476-.71875-3.53125zm-14.03125,1.625c-.14295.0219-.27601.0758-.40625.15625-.52097.32197-.69698,1.01028-.375,1.53125s1.01028.69698 1.53125.375 .69698-1.01028.375-1.53125c-.24148-.39073-.69615-.59687-1.125-.53125zm7.25.21875c-.62616-.067-1.37941.26106-2.6875.9375-1.56692.81029-3.32773,2.39189-3.9375,3.53125-.986,1.84241-.85257,2.049 1.21875,1.78125 3.37933-.43684 4.61175.74457 4.03125,3.78125-.34232,1.79075-.14421,2.42483.59375,1.96875 .60574-.37436.8825-1.23523.625-1.90625-.55279-1.44055 3.23479-4.04669 4.625-3.1875 1.50027.92722 1.09996,2.5-.625,2.5-.85746,0-1.28518.39426-.96875.90625s.0552,1.24325-.5625,1.625c-.79573.49179-.7113.95339.25,1.5625 1.80526,1.14387 2.10342,1.09223 1.3125-.1875-.36254-.5866.0349-1.5991.875-2.25 2.17266-1.68329 2.63195-7.65625.59375-7.65625-.58236,0-.82301.32848-.5625.75s-.60945,1.27951-1.9375,1.90625c-2.09258.98754-2.4375.88181-2.4375-.71875 0-1.01579.45-2.09758 1-2.4375s1-.0804 1,.59375 .29295.92579.65625.5625-.11368-1.54203-1.09375-2.625c-.81818-.90408-1.34259-1.37046-1.96875-1.4375zm24.09375.71875c-.4899.0325-.42765.32235.15625.90625 .75135.75133.76975,1.70279.0625,3.15625-.79885,1.64168-.59614,1.57066.96875-.375 2.1249-2.64194 2.02801-3.28063-.53125-3.65625-.28762-.0422-.49295-.0421-.65625-.0312zm-28.28125,2.0625c.35859.0159.59375.4194.59375,1.0625 0,.85746-.45,1.5625-1,1.5625s-1-.45121-1-.96875 .45-1.19133 1-1.53125c.1375-.085.28672-.13029.40625-.125zm21.53125,1.71875c-.3474-.0143-.76406.0743-1.125.21875-.79773.31922-.53995.54575.625.59375 1.05416.0434 1.64479-.19896 1.3125-.53125-.16615-.16612-.4651-.26695-.8125-.28125zm-5.9375.5c-.10788.01-.20131.0131-.28125.0625-.59322.36663-.10722,1.01292 1.125,1.46875 1.19403.4417 2.15625,1.30243 2.15625,1.9375 0,.84884-.33232.87598-1.3125.0625-1.00925-.8376-1.34375-.74839-1.34375.375 0,.81626.17708,1.29167.40625,1.0625s1.81839.18604 3.53125.90625c3.50776,1.4749 7.17054.89445 4.34375-.6875-.88956-.49783-2.19186-.58044-2.875-.1875s-.94105.3584-.5625-.0625c.90299-1.00401-3.56927-5.08045-5.1875-4.9375zm-2.375,1.84375c-.29442-.0418-.62695.43197-.90625,1.5-.29356,1.12257-.14974,1.81693.3125,1.53125 1.05602-.65266.64953,3.60511-.53125,5.5625-.73127,1.21225-.60946,1.23748.6875.1875 .91572-.74133 1.5066-2.65716 1.4375-4.65625-.0878-2.54068-.5093-4.05539-1-4.125zm119.875,3.3125-3.4375,2.09375c-2.49138,1.49905-3.80132,1.7614-4.71875,1-.69815-.57938-1.85651-.81482-2.5625-.53125-.78467.31518-.5746.54545.53125.59375 .99496.0434 1.52742.54375 1.1875,1.09375-1.37208,2.22006 4.33342.81323 6.59375-1.625zm-114.875,1.59375c-.16471.049-.40038.39836-.75,1-.77719,1.33742-.76781,2.55875.0312,4.3125 1.39696,3.06523 1.39371,3.61136 0,2.75-.73676-.45534-.90403.0545-.5,1.46875 .33392,1.16888.85277,3.1375 1.15625,4.375 .53678,2.18886.50961,2.16963-1,.28125-1.12535-1.4077-1.5514-1.5451-1.5625-.5-.0127,1.18984-.16524,1.2139-.875.0937-.47283-.74622-1.08898-.97122-1.375-.5s.10773,1.44706.875,2.15625c1.13878,1.05257 1.38145,1.05257 1.40625,0 .0169-.7183.51979-.4792 1.125.5625 .87722,1.50989 1.26801,1.60617 1.96875.5 .68248-1.07735.863-.96995.875.40625 .0205,2.33987.66708,2.18685 1.3125-.28125 .28785-1.10076.15493-1.76957-.28125-1.5s-1.07623-.51868-1.40625-1.75c-.91516-3.41451-.74757-4.93923.46875-4.1875 .79969.49424.79969.11923 0-1.375-.60487-1.13022-1.1083-3.52009-1.125-5.34375-.0164-1.78834-.0692-2.55048-.34375-2.46875zm-7.34375.65625c-.43185.004-1.30143,1.12862-1.9375,2.5s-.74562,2.24381-.25,1.9375c1.31892-.81513 3.10739-4.4465 2.1875-4.4375zm126.625,1c-.17296.0924-.56148.3773-1.15625.84375-.9625.75485-1.75,1.54235-1.75,1.75 0,.82304.81863.322 2.125-1.34375 .77742-.99129 1.06951-1.40392.78125-1.25zm-31.96875.0937c-.3474-.0143-.76407.0743-1.125.21875-.79773.31922-.53995.54575.625.59375 1.05416.0434 1.64479-.19896 1.3125-.53125-.16615-.16612-.4651-.26695-.8125-.28125zm-84.46875.0625c-.11937.11885-.21181.96875-.21875,2.34375-.0111,2.19996.18721,3.20609.4375,2.25s.27044-2.75609.0312-4c-.0897-.46647-.17838-.66506-.25-.59375zm97.875.28125c-.21349.005-.34375.10059-.34375.28125 0,.43893 1.0125,1.29336 2.25,1.90625s2.39254,1.1825 2.5625,1.25 .0256-.32796-.3125-.875c-.70384-1.13886-3.23112-2.58388-4.15625-2.5625zm-103.28125,1.06255-2.0625,2.40625c-1.57493,1.84036-1.77629,2.59185-.8125,3.1875 .69537.42977.94578,1.08547.5625,1.46875s-1.49296.0784-2.46875-.6875c-1.61854-1.27035-1.64535-1.24354-.375.375 2.17426,2.77019.70348,3.0239-1.84375.3125-1.84643-1.96544-2.72341-2.26611-4.65625-1.53125-2.02638.77043-2.40625.60853-2.40625-1.09375 0-2.80701-2.94644-3.73306-4.625-1.4375-1.57501,2.15395-1.83338,5.88939-.34375,4.96875 .56038-.34633 1.26224.71748 1.59375,2.375 .4075,2.03751 1.06766,2.80727 2.03125,2.4375 1.15792-.44433 1.16859-.805.125-2.09375-.98603-1.21771-.99758-1.4243-.0312-.84375 .6875.41304 1.25.26996 1.25-.3125s-.675-1.03125-1.5-1.03125-1.5-.70504-1.5-1.5625-.40754-1.30822-.90625-1-.66285-.33674-.375-1.4375 1.2579-2.008 2.15625-2c1.39546.0131 1.41302.14269.15625.9375-.80907.51167-1.25907,1.07674-1,1.25s1.57421,1.21836 2.90625,2.3125 2.11336,1.46872 1.75.84375c-.37563-.64608.18646-1.36178 1.3125-1.65625 1.33345-.34871 2.72948.36013 4.25,2.15625 2.08377,2.46149 2.38664,2.53199 3.875,1.03125 .88715-.89454 1.91839-3.36215 2.28125-5.5zm92.3125.84375c-.22621.0561-.375.26611-.375.59375 0,.58246.45,1.0625 1,1.0625s1-.22621 1-.46875-.45-.69133-1-1.03125c-.1375-.085-.25547-.13615-.375-.15625-.0897-.0151-.1746-.0187-.25,0zm9.625.625c-.069-.032-.46464.28423-1.21875.875-.94492.74025-1.61992,1.86525-1.5,2.5s-.76057,1.13975-1.96875,1.15625-2.45724.30099-2.78125.625 1.1053.47862 3.1875.34375c4.92391-.31894 4.87097-.28528 3.5-1.65625-.9016-.9016-.87743-1.54362.0625-2.75 .53823-.6908.78773-1.06179.71875-1.09375zm-56.0625,1.03125c-1.24256,0-1.78518.43007-1.375,1.09375 .44764.7243-.0795.66866-1.5625-.125-2.18913-1.17159-2.24579-1.09189-1.6875,2.65625l.59375,3.875-1.09375-3.25c-.8417-2.51152-1.54076-3.12307-3.1875-2.8125-1.16222.21919-2.39635.42785-2.75.46875s-.92245.77143-1.25,1.625c-.34149.88988-.16061,1.28784.40625.9375 .5437-.33602.992-.001 1,.71875 .0359,3.06674 1.84864,3.90554 9.5625,4.40625 9.00976.58482 17.78874,2.99484 16.78125,4.625-.4007.64834-.19389.79191.53125.34375 2.73622-1.69107 12.50591,7.49221 16.09375,15.125 1.11422,2.37042 2.11532,4.2743 2.25,4.25s2.5-.67389 5.25-1.4375c4.35674-1.20976 4.61404-1.41628 2-1.59375-2.42236-.16446-2.56677-.27508-.75-.625 2.3885-.46005 2.83443-1.87475 1.3125-4.28125-.77699-1.22859-1.49247-1.26974-4.3125-.25-5.2431,1.89593-6.79012,1.34999-1.84375-.65625 2.57665-1.04508 3.94589-2.08923 3.28125-2.5-.62531-.38646-2.01854-.23169-3.09375.34375-3.11903,1.66925-3.78914,1.14725-1.25-.96875l2.34375-1.9375-2.125-2.96875c-4.63271-6.50604-12.91467-9.744-15.875-6.1875-1.21326,1.45758-1.30138,1.46749-.8125-.0937 .7367-2.35266-.88953-3.14172-2.71875-1.3125-1.13568,1.13567-1.61831,1.18947-2,.25-.37652-.92673-.77036-.83883-1.5625.28125-.65787.93024-1.0525,1.02247-1.0625.28125-.009-.70358-1.98508-1.34202-4.78125-1.5625l-4.75-.375 5.25-.1875c5.13911-.17644 5.25-.22015 5.25-3.1875 0-3.51003-2.20279-4.85889-4.6875-2.84375-1.15711.93843-1.45498.98634-.9375.125 .41748-.6949.26243-1.25-.34375-1.25-.59972,0-1.33967.675-1.65625,1.5-.83162,2.16715-2.375,1.84321-2.375-.5 0-1.35244-.67015-2-2.0625-2zm78,.0937c-.3474-.0143-.76407.0743-1.125.21875-.79773.31922-.53995.54575.625.59375 1.05416.0434 1.64479-.19896 1.3125-.53125-.16615-.16612-.4651-.26695-.8125-.28125zm-7.46875.9063c-.78096.0297-1.57061.33192-1.90625.875-.30382.49159.52517.8291 1.84375.75s2.19219-.4625 1.9375-.875c-.3199-.51814-1.09404-.77971-1.875-.75zm10.4375,1c-.17296.0924-.56148.3773-1.15625.84375-.9625.75485-1.75,1.54235-1.75,1.75 0,.82304.81863.32205 2.125-1.34375 .77742-.99129 1.06951-1.40392.78125-1.25zm-22.71875.0625c-1.37849.0573-1.31791.23689.3125.9375 2.67591,1.14988 2.71066,1.14988 2,0-.33992-.55-1.38246-.9762-2.3125-.9375zm28.96875.9375c-.50521,0-1.14984.9-1.4375,2s-.36041,2-.15625,2 .8488-.9 1.4375-2 .66371-2 .15625-2zm-22.21875.0937c-.3474-.0143-.76407.0743-1.125.21875-.79773.31922-.53995.54575.625.59375 1.05416.0434 1.64479-.19896 1.3125-.53125-.16615-.16612-.4651-.26695-.8125-.28125zm-49.90625.15625c-1.21421-.0311-2.02827,1.0843-2,3.03125 .0311,2.14171.0648,2.14748 1.5.25 1.45339-1.92151 1.4929-1.92151 1.5625,0 .068,1.87797.0727,1.90371.84375-.0312 .53276-1.33687.35674-2.275-.5625-2.8125-.4791-.28014-.93901-.42715-1.34375-.4375zm61.09375.1875c-.1573.0235-.34002.0709-.5625.15625-.85357.32755-1.5625.78384-1.5625,1 0,.80991 1.91274.35646 2.5-.59375 .26276-.42515.0969-.63285-.375-.5625zm-92.28125.125c-.12335.006-.25902.018-.375.0625-1.69794.65156-1.91259,1.98266-.46875,2.875 .55.33992 1,1.04375 1,1.59375s-.52127.67369-1.15625.28125c-.72104-.44563-.85817-.26247-.40625.46875 .39798.64393 1.14037.91258 1.65625.59375s1.20129.10889 1.53125.96875c.65189,1.69878 1.78495,1.86407 4.875.65625 1.99056-.77805 1.99275-.79388-.0312-1.4375-1.1185-.35568-2.82021-1.96685-3.78125-3.59375-.96569-1.63479-1.98028-2.51291-2.84375-2.46875zm97.71875.46875c-.34214.073-.715.41842-1.09375,1.03125-.36374.58854-1.63128,1.44261-2.8125,1.90625-1.74011.68283-1.48974.81483 1.375.6875 2.64555-.11759 3.5625-.59243 3.5625-1.90625 0-1.22611-.46101-1.84034-1.03125-1.71875zm-36.40625.34375c-.24455.0639-.46336.29358-.6875.65625-.49999.809-.37192,1.02412.375.5625 1.08592-.67113 1.64769.64691 1.21875,2.90625-.10441.55.39054.41018 1.09375-.28125 1.037-1.01962.97612-1.55513-.3125-2.84375-.6144-.6144-1.0754-.94812-1.4375-1-.0905-.013-.16848-.0213-.25,0zm-86.625.625c-.48888.1216-.2574.67997.65625,1.59375 1.16224,1.16224 1.46819,2.74856 1.09375,5.75-.58484,4.68797-2.28125,7.40282-2.28125,3.65625 0-1.86667-.25417-2.15208-1.1875-1.21875-1.83669,1.83669-3.02009,1.44817-2.3125-.78125 .64847-2.04315-.88227-2.80852-2-1-.94891,1.53537-2.49263,1.17203-1.875-.4375 1.10413-2.8773-3.27157-3.84206-8.90625-1.96875-2.85885.95045-4.69881,1.88075-4.0625,2.09375s2.88732-.30477 5-1.1875c3.70524-1.54815 3.90392-1.55561 5.59375.53125 2.24025,2.7664 2.23906,4.34225 0,3.5625-1.57602-.54886-1.56997-.47514-.125.65625 3.88509,3.04199 2.96782,8.50194-1.25,7.4375-2.25639-.56945-2.29944-.54735-.4375.84375 1.8064,1.34955 1.66758,1.4518-2,1.4375-3.00495-.0117-3.58119-.2489-2.4375-1.03125 1.12218-.76766.49248-.9626-2.5-.78125-2.68628.1628-3.91789-.16218-3.75-.96875 .1375-.66057-.26458-1.1875-.90625-1.1875s-.84298-.34451-.4375-.75c.73879-.73879 1.16324-.84199 5.34375-1.125 1.2375-.0838 2.25-.63585 2.25-1.25 0-.69549-.8486-.86668-2.25-.4375-1.2375.37899-2.925.73795-3.75.78125-4.0347.21201-2.36927,6.78125 1.71875,6.78125 1.66494,0 2.29902.47496 2.09375,1.625-.16161.90544.3625,1.85732 1.1875,2.09375 1.33333.38211 1.33333.2867 0-.65625-1.09124-.77173-1.13399-1.0514-.1875-1.0625 2.42265-.0285 4.50183,6.98617 3.6875,12.46875-.81217,5.46808-.95358,9.2655-.375,11.40625 .20439.75625-.3,1.56438-1.125,1.8125-1.2208.36716-1.23839.27977-.125-.5 1.11578-.78142.97748-1.36627-.75-3.09375-1.16493-1.16491-1.675-2.09375-1.125-2.09375s1-.48004 1-1.0625-.42551-.81643-.9375-.5-1.25724.0519-1.65625-.59375c-.50218-.81254-.0552-1.01534 1.4375-.625 1.186.31014 2.15625.18601 2.15625-.3125s-.47321-.90625-1.0625-.90625-1.7375-.675-2.5625-1.5c-1.20833-1.20833-1.22976-1.5-.125-1.5 .75429,0 1.86439.48939 2.46875,1.09375 .79845.79845 1.27528.20992 1.78125-2.09375 .38298-1.74369.42109-3.42266.0937-3.75s-.59375.37084-.59375,1.5625-.38936,2.1875-.875,2.1875c-1.02836,0-.90895-4.9756.15625-6.65625 .4021-.63442.0465-1.4011-.78125-1.71875-1.19324-.45789-1.5.36101-1.5,4.0625 0,2.54941-.27574,4.34926-.625,4-.66713-.66714-.94185-2.58878-1.34375-9.1875-.1456-2.39063-.45137-3.19531-.75-2-.27483,1.1-.86092,2.21404-1.3125,2.5-.95029.60175 2.94964,17.73122 5.28125,23.15625 .86716,2.01764 1.31986,3.93014 1,4.25s-.013.59375.6875.59375c.74558,0 1.03953.64513.6875,1.5625-.60335,1.57231 2.1609,8.40098 4.71875,11.65625 1.47095,1.87202 8.65625,5.27391 8.65625,4.09375 0-.39238.55875-.19125 1.21875.46875 1.47601,1.47601 2.11485,1.55562 1.25.15625-.41389-.66969.24261-.80811 1.84375-.40625 1.97807.49647 2.46538.25613 2.34375-1.15625-.0841-.97655.90414-2.31299 2.1875-2.96875s2.94098-2.37358 3.6875-3.8125c1.81046-3.48968.87428-3.43291-6.25.25-2.96474,1.53264-3.59775,1.45827-2.90625-.34375 .31658-.825.19265-1.5-.28125-1.5s-1.13879.70264-1.46875,1.5625-1.07111,1.27981-1.625.9375-1-.17276-1,.40625-1.0125.9076-2.25.71875-2.25-.81939-2.25-1.40625-.40557-1.44791-.90625-1.90625c-.52889-.48416-.60543-.28874-.1875.4375 .41559.72216.17313,1.25-.5625,1.25-.91215,0-.82893.42106.28125,1.53125 1.66894,1.66893 3.28524,1.81129 9.125.84375 3.76468-.62373 5.32158.79734 2.1875,2-3.96951,1.52325-8.42208.5865-11.65625-2.46875-1.79618-1.6968-2.71875-2.79176-2.03125-2.4375 .74091.38179 1.25-.0134 1.25-.9375 0-2.01924.87401-1.94157 3.34375.21875 1.18897,1.03999 1.67973,1.14896 1.1875.3125-.63292-1.07557-.34063-1.25971 1.25-.84375 1.58423.41429 1.92169.18033 1.46875-1-.4234-1.10336-.19228-1.33236.75-.75 .88124.54464 1.0685.42441.59375-.34375-.47142-.76277.23787-1.16655 2.09375-1.21875 1.54492-.0434 2.26062-.29196 1.59375-.5625-.7678-.31148.0473-1.76604 2.21875-3.9375l3.43755-3.4062h-2.90625c-1.5992,0-3.19133.45-3.53125,1-1.02604,1.66016-2.46658,1.09844-1.78125-.6875 .46664-1.21605.2604-1.41765-.71875-.8125s-1.15414.3723-.6875-.84375c.3512-.91522.26119-1.65625-.1875-1.65625s-1.31416-1.0125-1.9375-2.25c-.98976-1.96495-1.06524-1.79347-.5625,1.40625 .47256,3.00764.2013,3.85622-1.46875,4.75-1.19824.64128-2.25985.69652-2.59375.15625-.31181-.50451-.003-1.1277.6875-1.40625s.25607-.55035-.96875-.59375c-4.0224-.1426-5.60455-4.1807-4.8125-12.21875 .38524-3.90954 1.09381-8.18504 1.59375-9.5 .85191-2.24068 5.61553-5.00946 6.71875-3.90625 .275.275-.6993.96543-2.1875,1.53125-1.8943.72021-2.56855,1.55665-2.21875,2.78125 .27482.96207 1.27996,4.54751 2.21875,8s1.85713,6.11162 2.0625,5.90625-.40545-3.39045-1.375-7.09375c-1.6981-6.48598-1.69658-6.77508.0625-8.0625 1.00438-.73508 1.90917-1.95376 2.03125-2.6875s.76455-2.27231 1.40625-3.4375 .87857-2.40268.53125-2.75 .0569-.625.90625-.625c2.17157,0 3.98704-2.50103 4.25-5.84375 .12304-1.56406.53338-3.37737.9375-4.03125 .97768-1.58191-.29658-7.31819-1.46875-6.59375-.50525.31226-.9375.0825-.9375-.5s-.55089-1.03125-1.21875-1.03125c-.0988,0-.18016-.0174-.25,0zm101.03125,0c-.24254,0-.72258.45-1.0625,1s-.14496,1 .4375,1 1.0625-.45 1.0625-1-.19496-1-.4375-1zm3.84375.0312c-.24604.12304.22208.73093 1.15625,1.4375 1.06762.8075 2.35738,1.4825 2.875,1.5s.0676-.62999-1-1.4375-2.35738-1.4825-2.875-1.5c-.0647-.002-.1211-.0176-.15625,0zm-118.59375.15635c-.17466.004-.47927.29688-.8125.8125-.53316.825-.96875,1.95-.96875,2.5s.43559.325.96875-.5 .96875-1.95.96875-2.5c0-.20625-.0515-.31499-.15625-.3125zm35.5.59375c-1.96776-.008-5.3125,1.10165-5.3125,2.125 0,.3933 1.35574,1.98719 3,3.5625s2.74625,3.0975 2.46875,3.375-2.05199-1.0172-3.96875-2.875-3.48125-2.95789-3.46875-2.4375 1.80212,2.50112 3.96875,4.375 3.65155,3.8264 3.3125,4.375-.11096.6901.5.3125 .84107-1.31761.53125-2.125-.0582-1.46875.53125-1.46875 1.56328-.95862 2.1875-2.125 .6988-1.86656.15625-1.53125c-1.07703.66564-2.52206-.83154-3.53125-3.65625-.4319-1.20889-.26685-1.56769.5-1.09375 .68186.42141.84112.24682.4375-.40625-.18204-.29455-.65658-.40347-1.3125-.40625zm38.71875.15625c-.26125-.0568-.6487.44611-.875,1.125-.26087.78262.17024,1.01536 1.1875.625 .88243-.33862 1.86243-.18223 2.1875.34375 .74279,1.2019 2.46875,1.24244 2.46875.0625 0-.72737-1.62447-1.42935-4.96875-2.15625zm43.78125,1.125c-.93004-.0349-2.00307.42946-2.375,1.03125s-1.73737.87234-3.03125.625-2.10332-.0643-1.8125.40625 1.19942.875 2.03125.875 2.21131.68007 3.0625,1.53125 1.84134,1.25241 2.1875.90625-.23371-1.23402-1.28125-2c-1.83979-1.34529-1.8243-1.44558.5-2.375 1.63907-.65542 1.87063-.9568.71875-1zm-84.21875,1.96875c.50837.0173 1.73058,1.14229 2.71875,2.5 2.31054,3.17462 1.68553,3.16-1.3125-.0312-1.29175-1.375-1.91463-2.48605-1.40625-2.46875zm94.65625.0625-2.75.0937 2.5.8125c1.375.44035 2.6125.8202 2.75.875s.25-.325.25-.875-1.2375-.96105-2.75-.90625zm7.84375.375c-.1793.0196-.3875.0771-.59375.15625-.825.31659-1.5.75259-1.5.96875s.675.40625 1.5.40625 1.5-.43601 1.5-.96875c0-.39955-.36836-.62134-.90625-.5625zm-55.5.53125c.275,0-.005.9-.59375,2s-1.2875,2-1.5625,2c-.275,0-.0262-.9.5625-2s1.31875-2 1.59375-2zm23.90625,0c-.14881,0-.50989.57412-.78125,1.28125-.2913.75913.26267,1.28125 1.34375,1.28125 1.37853,0 1.58462-.31324.78125-1.28125-.58688-.70714-1.19493-1.28125-1.34375-1.28125zm-5.65625,1.125c-.73608-.0118-3.74101,2.06519-4.90625,3.5-.87731,1.08027-.1986.84725 1.8125-.625 1.7875-1.30856 3.25-2.55908 3.25-2.75 0-.0949-.0511-.12332-.15625-.125zm-72.25.65625c-.41657.0576-.7368.39511-1.15625.96875-1.05144,1.43793-.72132,2.01345 2.40625,3.9375 6.74079,4.14687 8.48442,2.33912 2.5-2.59375-2.09257-1.72488-3.05572-2.40845-3.75-2.3125zm95.5,0c-.40271.0205-.75553.30625-.875.71875-.15929.55.60565,1.11074 1.6875,1.28125s2.46159.95704 3.09375,1.71875c1.66284,2.0036.84233,5.89558-1.34375,6.3125-2.2157.42257-7.68199,6.3047-9.3125,10.03125-1.42176,3.24946-.63563,4.73613 4.3125,8.25 3.78479,2.68773 5.34004,3.52754 4.03125,2.21875-.36189-.3619-.19919-1.2144.375-1.90625 .76934-.92701.51097-1.42669-1-1.90625-1.12768-.35791-2.31812-1.74652-2.65625-3.09375-.48637-1.93784.24213-3.37453 3.46875-6.875 2.24322-2.43361 4.35618-5.61791 4.71875-7.0625 .97561-3.88712-.76192-8.96562-3.125-9.125-1.07962-.0728-2.41875-.29782-2.96875-.5-.1375-.0505-.27201-.0693-.40625-.0625zm9.84375.3125c-.3474-.0143-.76407.0743-1.125.21875-.79773.31922-.53995.54575.625.59375 1.05416.0434 1.64479-.19896 1.3125-.53125-.16615-.16612-.4651-.26695-.8125-.28125zm-135.90625,1.15625c-.22008.0311-.4825.12771-.78125.25-.9625.394-2.65.76635-3.75.84375-2.05954.14482-2.79611,2.64689-1.125,3.8125 .51776.36114 1.99223.16683 3.25-.40625 1.89841-.86497 2.80632-.59394 5.40625,1.59375 3.38052,2.84452 4.51668,3.19673 5.46875,1.65625 .34705-.56153-.0462-.73627-.90625-.40625-1.71272.65723-6.59375-4.0656-6.59375-6.375 0-.74822-.30852-1.06194-.96875-.96875zm30.65625.75c.65504-.008 1.47258.45 1.8125,1 .7673,1.24153.42112,1.24153-1.5,0-.90129-.58246-1.02811-.991-.3125-1zm104.3125.59375c-.67341.12444-.67653,1.1499-.0625,3.15625 .0421.1375.31754.25.625.25s.31088-.43448 0-.9375-.0381-1.09146.625-1.3125c.7879-.26263.67112-.59857-.375-1-.17611-.0676-.32816-.13471-.46875-.15625-.12302-.0188-.24755-.0178-.34375,0zm-139.96875.40625c.53274,0 .96875.675.96875,1.5s-.15885,1.5-.375,1.5-.65216-.675-.96875-1.5-.15773-1.5.375-1.5zm3.90625.0937c.3474.0143.64635.1151.8125.28125 .33229.33229-.25834.57465-1.3125.53125-1.16495-.048-1.42273-.27453-.625-.59375 .36093-.14445.7776-.23305 1.125-.21875zm123.125.84375c-.12613.0691.20772.42218.9375,1.15625 .825.82985 2.4,2.05235 3.5,2.6875 2.48601,1.43542 2.24727,1.43214 3.09375.0625 .44208-.7153.2778-.91083-.4375-.46875-.68411.4228-1.15625.08-1.15625-.84375 0-.85746-.62624-1.53125-1.40625-1.53125s-2.24252-.33702-3.25-.71875c-.61111-.23154-1.01272-.3399-1.1875-.34375-.0364-.0008-.0757-.01-.0937,0zm-95.125.6875c-.57264.0425-.40158.45365.9375,1.28125 .95756.5918.72768.95589-.875,1.375-2.0836.54488-1.9856,2.71875.125,2.71875 .55,0 .71492-.45.375-1-.92529-1.49715.85641-1.20753 3.0625.5 1.91239,1.48024 1.90792,1.46933-.0625.90625-1.46719-.41926-1.33399-.14544.5.96875 2.25788,1.37171 2.62106,1.35695 3.75-.125 1.8247-2.39527 1.65934-2.68088-2.96875-5.03125-2.16748-1.10077-4.1075-1.64841-4.84375-1.59375zm84.625.37505c-.24254,0-.72258.45-1.0625,1s-.14496,1 .4375,1 1.0625-.45 1.0625-1-.19496-1-.4375-1zm5.65625,0c-.74157-.0954-2.21875,1.18511-2.21875,2.09375 0,.53923.63672.39668 1.40625-.3125s1.24544-1.46367 1.0625-1.65625c-.0704-.0741-.14406-.11137-.25-.125zm-63.375,1.09375c-.62051-.0211-.73577.63514-.3125,1.96875 .49748,1.5674.14465,2.21126-1.4375,2.625-2.43966.63799-2.74132,2.1134-.59375,2.9375 2.39637.91958 1.7557,2.375-1.0625,2.375-1.63372,0-2.43339.45949-2.15625,1.25 .24102.6875 1.63894,1.09582 3.09375.9375s2.625.17918 2.625.75-1.125,1.0625-2.5,1.0625c-3.18443,0-3.18538,1.94035-.0312,5.34375l2.4375,2.65625-5.6875.0312c-5.68138.0399-5.70985.0427-2.90625,1.5625 1.73207.93891 3.90757,1.29033 5.65625.90625 1.60876-.35334 3.12952-.16194 3.5.4375 .61114.98885-1.32692,1.50052-4.21875,1.125-1.89878-.24657-1.47503,2.3334.84375,5.28125 2.38745,3.03515 8.90625,3.88791 8.90625,1.15625 0-2.08598.42411-1.91964 3.84375,1.5 4.2197,4.21974 9.15655,4.20398 11.03125-.0312 1.62254-3.66559.89637-5.96875-1.84375-5.96875-1.11726,0-2.03125-.45-2.03125-1 0-1.3935 2.04549-1.18895 5,.5 2.79411,1.59726 7,1.94256 7,.59375 0-1.53924-2.38727-2.82399-6.375-3.4375-5.10262-.78504-5.37967-1.22605-2.65625-4.125 2.63036-2.79989 2.12681-5.53125-1-5.53125-1.14972,0-1.80867-.45-1.46875-1s1.54288-1 2.65625-1c2.74687,0 1.82461-2.32296-1.21875-3.0625l-2.4375-.5625 2.75-.71875c3.12226-.80287 3.59613-2.42319 1-3.40625-.9625-.36446-2.33571-1.25047-3.0625-1.96875-2.1078-2.08311-4.43039-1.62189-3.6875.71875 .49094,1.54682.1783,2-1.375,2-2.79421,0-3.56514,1.69429-1.125,2.46875 2.59858.82477 2.59382,2.53125 0,2.53125-1.1,0-2,.45-2,1s1.125,1 2.5,1 2.5.45 2.5,1-1.15043,1-2.5625,1c-2.18967,0-2.46428.33102-1.90625,2.25 .35985,1.2375 1.62279,3.09289 2.8125,4.125 2.15164,1.86664 2.13456,1.86719-2.71875,1.28125-2.68353-.32398-5.03833-.75708-5.25-.96875s.60356-1.65058 1.8125-3.1875l2.1875-2.8125-2.28125-1.84375c-1.8648-1.51002-2.00164-1.84375-.625-1.84375 .93307,0 1.50244-.56154 1.25-1.25s-.975-1.1375-1.59375-1c-2.1661.48136-1.10288-1.52718 1.125-2.125 2.16598-.5812 2.10103-.7433-1.5625-4.125-2.42629-2.23963-4.04595-3.37907-4.84375-3.40625zm88.15625.40625c-1.64413,0-3,.3724-3,.84375s-.62677.61162-1.40625.3125c-.95864-.36786-1.71254.22056-2.03125,1.21875l2.78125.5625c1.84238.40132 2.60542.26996 2.1875-.40625-.35354-.57204-.17621-1.03125.40625-1.03125s1.0625.9 1.0625,2c0,2.31046-.56615,2.34418-4,.3125l-2.4375-1.4375c-.24431.76517-.23394,1.76443.15625,2.78125 .48074,1.25278.21466,1.52861-1,1.0625-1.14232-.43834-1.45394-.20757-1.0625.8125 .30583.79699.0511,1.46875-.5625,1.46875-2.20673,0-7.17173,5.37448-6.875,7.4375 .39707,2.7607 3.38216,3.19538 4.0625.59375 .33504-1.28116 1.09518-1.84721 2-1.5 .95347.36588 1.8746-.49331 2.71875-2.53125 1.35723-3.27666 4.21705-3.80461 4.78125-.875 .19853,1.03093-.58476,1.84774-2.1875,2.25-1.69415.42521-2.32265,1.12133-1.9375,2.125 .36649.95507-.049,1.5-1.125,1.5-2.26432,0-4.87426,2.63135-3.46875,3.5 .7109.43936.51769,1.53364-.5625,3.3125l-1.625,2.6875 1.96875-2.25c1.08331-1.2375 2.21832-2.25 2.5-2.25s1.04081,1.60301 1.6875,3.5625c1.00886,3.05687.91056,3.83776-.59375,5.5-.9739,1.07615-1.22253,1.9375-.59375,1.9375 .62256,0 1.76207-1.0125 2.5625-2.25 2.43763-3.76867 2.9137-7.44671 1.34375-10.59375-.95853-1.92142-1.16121-3.46141-.5625-4.53125 1.39014-2.48404 3.08741-2.03023 1.75.46875-.79769,1.49048-.8042,1.91521-.0312,1.4375 .7182-.44387 1.09375.53701 1.09375,2.78125 0,3.33352 2.00925,6.33453 3.34375,5 .36189-.3619.65625-.14558.65625.46875s-.7875,1.55067-1.75,2.09375c-1.49126.84142-1.53394,1.19425-.34375,2.3125 .76815.72175 1.10253.78612.75.15625s.075-1.41903.9375-1.75c1.89146-.72582 1.45033-4.09375-.53125-4.09375-.77164,0-1.58906-.64219-1.84375-1.40625-.29969-.89907-.0457-1.11678.75-.625 .92066.56901 1.00753.27579.28125-1.125-.53345-1.02888-.84279-2.65988-.6875-3.625 .16265-1.0108-.18105-1.46469-.78125-1.09375-.58898.364-.82424.0352-.5625-.75 .25469-.76406 1.09584-1.375 1.875-1.375s1.543-1.0125 1.71875-2.25-.16175-2.25-.75-2.25c-1.3522,0-1.40427-4.67074-.0625-5.5 .55-.33992 1.0612.19254 1.125,1.1875 .10821,1.68744.13372,1.67503.5625.0312 .25283-.96924.85742-1.51932 1.34375-1.21875s.47133-.68742-.0625-2.21875c-.7698-2.20828-1.59783-2.78125-3.96875-2.78125zm-34.375.5c-.53647.085-.44954.49442.28125,1.375 .82412.99297.84978,2.13648.0937,4.125-1.15866,3.04749-.40554,4.79006 1.0625,2.46875 .75551-1.19464.9128-1.09296.9375.53125 .034,2.24108 2.28085,9.09335 3.3125,10.125 .36839.36839-.10855,1.2814-1.0625,2.03125-1.34071,1.05387-1.40947,1.2982-.25,1.09375 .825-.14546 1.3875.3125 1.25,1-.33518,1.67588.82457,1.50616 3.25-.4375 1.56903-1.25736 1.62902-1.46353.28125-1-.94489.32498-1.98743.15098-2.3125-.375s-.19892-.9375.25-.9375c1.35027,0 .19899-8.83933-1.3125-10.09375-1.98512-1.6475-1.76467-4.89149.34375-5.03125 1.51877-.10068 1.51974-.17259-.125-.59375-1.52272-.38991-1.62098-.6652-.5-1.375 1.00493-.63633.60583-.89525-1.375-.90625-1.5125-.008-2.75-.45-2.75-1s-.50766-1-1.125-1c-.10244,0-.17336-.0121-.25,0zm10.375,0c-.55,0-1,.675-1,1.5s.45,1.5 1,1.5 1-.675 1-1.5-.45-1.5-1-1.5zm26,1c.55,0 1,.45 1,1s-.45,1-1,1-1-.45-1-1 .45-1 1-1zm-22.0625.0937c-.3474-.0143-.76407.0743-1.125.21875-.79773.31922-.53995.54575.625.59375 1.05416.0434 1.64479-.19896 1.3125-.53125-.16615-.16612-.4651-.26695-.8125-.28125zm-121.8125.9375c-1.02618.0405-2.20435.34375-3.09375.90625-1.04003.65779-.40558.88748 2.15625.75 1.98968-.10678 3.40813-.525 3.15625-.9375-.31447-.51499-1.19257-.75924-2.21875-.71875zm24.125,2c-.5.0707-.25.3225.75.96875 .825.53316 2.175.96875 3,.96875 1.33333,0 1.33333-.10708 0-.96875-.825-.53316-2.175-.96875-3-.96875-.33333,0-.58333-.0236-.75,0zm6.46875,2c-.47798,0-.60984.33595-.21875.96875 .33992.55 1.38246.97675 2.3125.96875 1.45727-.0132 1.48019-.13335.1875-.96875-.97918-.6328-1.80327-.96875-2.28125-.96875zm-6.34375.0312c-.288.0498-.375.29771-.375.71875 0,.44383 1.2375,1.33431 2.75,1.96875l2.75,1.15625-3.09375-.5-3.09375-.5 .40625,4.78125c.54786,6.87374.80708,7.27506 5,7.40625 3.57907.11199 3.62958.15212.84375.75-1.61882.34743-2.85632.99375-2.75,1.40625s.1875,1.44379.1875,2.3125c0,1.25575.66607,1.45071 3.25.90625 4.27663-.90113 5.89905-2.44317 2.71875-2.59375-1.79547-.085-1.98327-.25003-.65625-.59375 1.35643-.35135 1.69248-1.12869 1.3125-3.125-.27899-1.46573-.7867-4.49822-1.125-6.75-.51447-3.42439-1.18943-4.36502-4.09375-5.75-2.46974-1.17774-3.55125-1.67667-4.03125-1.59375zm120.6875,1.90625c-.20978-.0202-.43251.0575-.65625.28125-.33007.33008-.24327,1.178.1875,1.875 .63003,1.01938.84878,1.01617 1.1875,0 .36254-1.08761-.0894-2.09564-.71875-2.15625zm-48.5,3.03135c.24254,0 .4375.45.4375,1s-.48004,1-1.0625,1-.77742-.45-.4375-1 .81996-1 1.0625-1zm-39.96875,3.1875c.54973-.05.92452-.013 1.03125.0937 .21347.21347-.44424,1.13533-1.46875,2.0625-1.59032,1.43922-2.03215,1.4851-3.03125.28125-.946-1.13985-.66927-1.52589 1.46875-2.0625 .72734-.18255 1.45027-.32503 2-.375zm44.25.25c-2.23847.0984-5.30462.78718-6.84375,1.75-1.03033.64453-.44325.76417 1.875.375 1.85625-.31161 4.47379-.5625 5.8125-.5625 1.41634,0 2.18316-.4315 1.8125-1.03125-.26231-.42442-1.31317-.59027-2.65625-.53125zm44.09375.625c-.83273.12746-1.9375,1.16845-1.9375,2.09375 0,.6631.58086.60125 1.53125-.1875 .83829-.69572 1.3142-1.46705 1.0625-1.71875-.0867-.0867-.19425-.16202-.3125-.1875-.10347-.0223-.22479-.0182-.34375,0zm-75.03125.46875c.71104-.0446.99855.22242.8125.78125-.47887,1.43833-3.71875,2.20259-3.71875.875 0-.52619.9311-1.20413 2.0625-1.5 .32714-.0856.60674-.14138.84375-.15625zm31.875,1.6875c-3.1415.11534-8.78125,1.08806-8.78125,1.75 0,.7017 10.09788.12365 10.9375-.625 .22916-.20434.14622-.60379-.15625-.90625-.1932-.1932-.95283-.2572-2-.21875zm-5.0625,3.78125c-3.66419.0456-3.71875.3987-3.71875,3.03125 0,1.66766-.675,4.61925-1.5,6.59375-1.87948,4.49824-1.98306,4.02728 1.25,5.78125 1.5125.82054 2.28387,1.50925 1.71875,1.53125s-2.00123-.63786-3.1875-1.46875c-1.21983-.85441-2.39349-1.08879-2.71875-.5625-.31632.51182 1.34479,1.98824 3.6875,3.3125 4.15111,2.34649 5.07339,2.58874 4.8125,1.28125-.07-.35063.85627-1.43545 2.09375-2.4375l2.25-1.84375-4.9375-2.5625c-5.53219-2.87694-5.6017-3.44456-.125-1.15625 4.06159,1.69704 5.65625,1.88042 5.65625.65625 0-.46294-1.8402-1.41857-4.09375-2.09375s-3.85419-1.45831-3.5625-1.75 2.15755.0279 4.15625.6875 3.87155.94095 4.15625.65625-1.65345-1.21392-4.3125-2.0625l-4.84375-1.53125 5.5.5c5.32068.48039 5.41849.43227 3-1.09375-2.33133-1.47103-2.34819-1.53675-.25-.96875 1.30847.35422 2.25.18323 2.25-.4375 0-.58707-1.0125-1.08575-2.25-1.09375s-2.925-.46927-3.75-1.03125c-1.08245-.73736-.45611-.8429 2.25-.375 2.47267.42754 3.75.26401 3.75-.46875 0-.68035-2.1328-1.09375-5.5-1.09375-.68218,0-1.25779-.007-1.78125,0zm23.625,1.0625c-.45965,0-1.69851.65058-3.34375,1.9375-1.37501,1.07554-2.00959,1.95655-1.40625,1.96875s2.13794-.86875 3.40625-1.96875c1.48384-1.28692 1.8034-1.9375 1.34375-1.9375zm-62.78125.90625c.41562-.007 1.16242.1159 2.3125.34375 1.85625.36776 4.45565.6875 5.78125.6875 2.10031,0 2.2765.25714 1.34375,2-1.16637,2.17939-2.53026,2.56907-3.5,1-.33992-.55-1.43731-1-2.4375-1s-2.43265-.76974-3.1875-1.6875c-.77946-.9477-1.0052-1.33208-.3125-1.34375zm52.8125.375c-.15157-.0229-.25125.33441-.28125,1.0625-.0434,1.05416.19895,1.64479.53125,1.3125s.35137-1.18438.0625-1.90625c-.11971-.29915-.22156-.45498-.3125-.46875zm-104.84375,2.15625c-.75976.2046-.61631,1.47664.5,3.5625 .56935,1.06384 1.82197,1.9375 2.75,1.9375 1.32224,0 1.16519-.38047-.65625-1.65625-1.60677-1.12542-1.94464-1.83718-1.125-2.34375 .85035-.52554.72965-.90786-.40625-1.34375-.45618-.17505-.80925-.22445-1.0625-.15625zm121.09375.65625c-.0745-.0131-.16426.0393-.25.125-.34296.34294-.35694,1.30753-.0312,2.15625 .66877,1.7428 2.65625,2.12085 2.65625.5 0-.58246-.45-.77742-1-.4375s-1-.17587-1-1.125c0-.71185-.1514-1.17945-.375-1.21875zm-3.0625.4375c-.1024.0255-.11102.25493.0312.65625 .34271.96675-.0833,2.86734-.96875,4.21875s-1.60175,2.7869-1.59375,3.21875 .42583.12157.9375-.6875c1.85513-2.93338 1.87723-.37313.0312,3.75l-1.90625,4.25h2.9375c2.24623,0 2.77748-.38202 2.3125-1.59375-.43813-1.14173-.0857-1.4856 1.28125-1.25 1.09988.18957 1.77081-.17719 1.625-.90625-.1375-.6875.36734-1.25 1.125-1.25s1.94031-.675 2.625-1.5c1.69921-2.04743-.86733-2.06978-3.5625-.0312-2.64196,1.99828-3.4375,1.88899-3.4375-.46875 0-1.31306.66319-2 1.9375-2 1.06754,0 2.22648-.4563 2.5625-1 .35034-.56686-.0476-.74774-.9375-.40625-.85357.32755-1.5503.22134-1.5625-.25s-.93625-1.96875-2.03125-3.34375c-.75762-.95134-1.23559-1.44869-1.40625-1.40625zm-88.46875.15625c-1.647.15303-5.02873,1.10761-5.90625,1.8125-.18206.14624.16561,1.19342.78125,2.34375 1.0742,2.00716 1.23034,2.03593 4.3125.46875 4.72183-2.40091 4.69099-2.66922-.28125-2.03125-4.28179.54938-4.3424.52283-1.25-.53125 1.7875-.60929 3.25-1.46442 3.25-1.90625 0-.16408-.35725-.20726-.90625-.15625zm21.8125.25c.84278-.012.91799.50685.0937,1.5-1.4122,1.70159-2.62763,1.90415-3.4375.59375-.3043-.49236.16443-1.16736 1.03125-1.5 1.03258-.39624 1.80683-.58654 2.3125-.59375zm59.875.46875c-.31967-.041-.57824.20166-.90625.71875-1.16989,1.84425-1.07759,2.45367.75,4.28125 .89047.89048 1.90756,1.34244 2.25,1s-.16708-1.05767-1.125-1.59375c-2.20934-1.23641-2.287-3.31038-.0937-2.46875 1.39206.53419 1.44894.39416.34375-.9375-.51941-.62586-.89908-.95897-1.21875-1zm22.90625,1.25c-.37917.0715-1.20797,1.04894-2.5625,2.875-1.59113,2.14502-5.02791,5.90702-7.625,8.375-5.85355,5.56249-6.48325,7.16451-5.78125,14.90625 .49589,5.46879.30117,6.44566-1.6875,8.5625-1.34236,1.42888-2.85135,2.16933-3.78125,1.8125-.9764-.37467-1.33018-.18593-.90625.5 .37196.60184.13174,1.26861-.5625,1.5s.0795.1988 1.71875-.0625c2.4836-.39588 2.76038-.21103 1.78125.96875-.94217,1.13524-.78167,1.40625.71875,1.40625 1.02915,0 1.66607-.31767 1.4375-.6875s.27481-1.22658 1.09375-1.90625 1.4825-1.9486 1.5-2.84375 .68224-2.49234 1.46875-3.53125c.97275-1.2849 1.23465-3.24184.84375-6.09375-.39661-2.89363-.0501-5.16298 1.09375-7.375l1.65625-3.21875 3.90625,4.28125c3.19579,3.49772 3.66985,4.50821 2.53125,5.375-1.04219.79339-.34408.97369 2.78125.78125 5.4676-.33666 5.52783-.33808 3.1875-1.34375-1.71022-.7349-1.74644-.8774-.25-.9375 .9625-.0387 1.75-.5125 1.75-1.0625s-.50625-.8875-1.125-.75-1.31029-.31213-1.5625-1c-.30415-.82953.15887-1.0509 1.375-.65625 1.52445.49471 1.55963.39711.3125-.5-2.07552-1.49302-3-1.35683-3,.40625 0,.825-.45,1.5-1,1.5s-1-2.47621-1-5.46875c0-5.31644-1.44384-8.02987-2.96875-5.5625-.54416.88046-.98023.91545-1.46875.125-.39514-.63934.34435-1.49683 1.75-2.03125 1.41072-.53636 2.91271-2.29224 3.5625-4.15625 1.00914-2.89482 1.3-4.27945.8125-4.1875zm-69.5625.90625c.54831.0258.875.12002.875.28125 0,.32244-.85315,1.12358-1.90625,1.78125-1.51353.94521-2.15347.93267-3.03125-.125s-.48543-1.43023 1.90625-1.78125c.83192-.1221 1.60794-.18203 2.15625-.15625zm-31.8125,1.375c-1.83505-.0339-6.3125,2.20779-6.3125,3.15625 0,.46171.5625.8247 1.25.8125 1.64045-.0292 6.62878-3.93975 5.0625-3.96875zm106.53125.3125c-.2482.0387-.83219.70539-1.5,1.78125-.89042,1.43448-2.7863,3.11145-4.21875,3.71875-2.60402,1.104-2.62457,1.09998-.125.53125s5.97675-3.96005 5.96875-5.84375c-.0006-.1375-.0423-.20041-.125-.1875zm-32.59375.15625c-.0443.002-.0642.002-.0937.0312-.23669.2367.14803,1.13046.84375,1.96875 1.78402,2.14961 2.26431,1.88722.8125-.4375-.58742-.94062-1.25255-1.57509-1.5625-1.5625zm-20.8125,1.84375c1.15288-.15929 6.5625,2.39694 6.5625,3.1875 0,.62039.0419.65102-3.90625-1.0625-1.87072-.81192-3.15086-1.72413-2.84375-2.03125 .036-.036.11064-.0831.1875-.0937zm-52.0625.34375c-.50692.0274-1.35443.29876-2.46875.875-2.99216,1.54731-3.03304,1.66132-1.3125,3.5625 .97715,1.07974 2.34005,1.75324 3,1.5 .76806-.29472 1.00974.23653.6875,1.46875-.27689,1.05885-.10419,1.9375.40625,1.9375s1.90421.89177 3.09375,2c2.19171,2.04188 7.09578,4.45186 8.46875,4.15625 .4125-.0888.75.29375.75.84375s.45,1 1,1 1.02325-.7875 1.03125-1.75 .26281-2.66588.5625-3.78125c.43065-1.6027-.16645-2.29288-2.78125-3.25-1.81971-.66608-4.74232-2.5627-6.5-4.21875-3.62143-3.41206-4.55142-3.62197-6.3125-1.5-.68469.825-1.75485,1.4664-2.375,1.4375s-.1125-.76177 1.125-1.625c2.29443-1.60051 2.74023-2.71656 1.625-2.65625zm-35.0625,2c.31055-.12331 1.33173.59559 3.15625,2.1875l3.875,3.375 1.75-2.34375c.97346-1.29055 2.09066-2.06559 2.46875-1.6875s-.047,1.42202-.9375,2.3125-1.625,2.10803-1.625,2.6875c0,.64656-1.25552.81022-3.25.4375-3.03294-.56678-3.12399-.50834-1.3125.875 2.75116,2.10092 4.27779,1.8669 6.15625-1 .90093-1.375 2.26951-2.5 3.03125-2.5 2.63905,0 1.30483,2.71071-2.34375,4.75-3.24259,1.81237-4.74455,1.54835-8.21875-1.375-3.75494-3.15957-5.92134-6.65518-3.5625-5.75 1.16451.44686 1.37665.13131.84375-1.28125-.15117-.40068-.17241-.63145-.0312-.6875zm83.84375,2.71875c-.72666-.0347-1.74322.45525-3.40625,1.46875l3.6875,2.9375c4.91516,3.92665 6.18392,3.2394 1.5-.8125-2.27484-1.96789-2.76108-2.76828-1.4375-2.34375 1.5842.50811 1.77589.38412.84375-.625-.35449-.38376-.72983-.60317-1.1875-.625zm-3.40625,1.46875-.25-.21875 .21875.25 .0312-.0312zm-.0312.0312c-.0691.0422-.11602.0496-.1875.0937-4.03633,2.49459-4.05851,2.73896-.53125,6.875 1.375,1.61232 2.88345,2.68124 3.34375,2.40625s-.63181-2.012-2.4375-3.875c-3.77621-3.89605-2.36254-4.62845 1.6875-.875 4.17166,3.86616 5.24401,2.94257 1.375-1.1875zm-80.34375-.59375c-.26032.0262-.0355.39166.625,1.1875 1.44013,1.73524 2,1.91096 2,.625 0-.49116-.72221-1.18482-1.625-1.53125-.51468-.1975-.84381-.29697-1-.28125zm86.1875.75c-.58238.0183.0283.90455 1.34375,2s2.66628,1.73997 3,1.40625c.71019-.71019-2.79337-3.45495-4.34375-3.40625zm-87.375,2.25c.23513-.0163.83209.58833 1.8125,1.71875 1.1,1.26831 2,2.65916 2,3.125 0,1.88107-2.11907.68046-3.03125-1.71875-.79854-2.1003-1.08357-3.10399-.78125-3.125zm75.6875,1.40625c-.29626.0369-.6191.15663-.96875.34375-.97948.52421-2.72426.96875-3.90625.96875s-1.99857.3375-1.8125.75 .96178,2.3246 1.71875,4.28125c1.20709,3.1201 1.70275,3.52552 4.21875,3.15625 3.41276-.50089 3.56449-1.44769.8125-5.3125-1.13746-1.5974-1.60458-2.875-1.03125-2.875s1.7405,1.35 2.59375,3 2.25041,3 3.09375,3c1.63613,0 1.38803-.64994-1.9375-5.21875-1.15888-1.59213-1.89249-2.20436-2.78125-2.09375zm-22.21875.5625c-.14368.032-.36975.30667-.65625.75-.53316.825-.93645,2.85-.90625,4.5 .0472,2.57572.16837,2.71714.90625,1 .47269-1.1.9073-3.125.9375-4.5 .0271-1.23148-.0418-1.80339-.28125-1.75zm2.375.875c-.92343.0241-1.03125.91418-1.03125,3.75 0,2.26415.45,4.125 1,4.125s1-1.38004 1-3.0625 .38545-2.84574.84375-2.5625 .62072,1.88829.375,3.5625c-.26962,1.83703.0155,3.0625.6875,3.0625 .61243,0 1.1488-.7875 1.1875-1.75 .0601-1.49644.17135-1.46022.90625.25 .6863,1.59711.8814,1.22921.9375-1.8125 .0387-2.09496.46126-3.57559.9375-3.28125s.65928,1.61384.40625,2.9375 .0491,2.73045.6875,3.125c1.92943,1.19245 2.30354-.14587 1.0625-3.90625-.86628-2.62485-1.74511-3.58375-3.34375-3.59375-1.19485-.008-3.2-.29336-4.4375-.625-.51665-.13846-.91094-.2268-1.21875-.21875zm10.875.875c-.48773,0-.69942,1.0125-.46875,2.25s.4591,3.0375.5,4c.0796,1.87543 4.0625,2.54943 4.0625.6875 0-.58246-.42505-.80477-.96875-.46875-.58718.3629-.73488-.0745-.34375-1.09375 .48212-1.25638.31346-1.50556-.65625-.90625-.84116.51987-1.10524.42592-.6875-.25 .79597-1.28792-.20174-4.21875-1.4375-4.21875zm52.03125.0937c-.3474-.0143-.76407.0743-1.125.21875-.79773.31922-.53995.54575.625.59375 1.05416.0434 1.64479-.19896 1.3125-.53125-.16615-.16613-.4651-.26695-.8125-.28125zm-8.06255,1.90635c-.47373,0-.875,1.125-.875,2.5s.19537,2.5.40625,2.5 .5809-1.125.84375-2.5 .0987-2.5-.375-2.5zm6.375.125c-.13379.053-.0362.36132.28125.875 .59931.96971.35013,1.13837-.90625.65625-.94379-.36216-1.50275-.27204-1.21875.1875s-.80705,2.12543-2.4375,3.6875-2.94115,3.54665-2.90625,4.40625c.0449,1.10647.32673.97841.90625-.4375 1.29502-3.16405 4.70539-5.87489 5.59375-4.4375 .44374.71799-.23088,1.92484-1.65625,3-1.37663,1.03839-2.4765,3.00308-2.59375,4.625-.1656,2.29076-.0156,2.49326.78125,1.09375 .53806-.94498 1.74252-2.21871 2.6875-2.8125 1.42476-.89526 1.29187-.96591-.78125-.46875-2.40593.57697-2.43059.52464-.5625-.96875 1.06762-.85348 2.50008-1.53125 3.1875-1.53125s1.57631-.52127 1.96875-1.15625c.43904-.71037.29573-.9026-.40625-.46875-.78429.48485-1.02714-.26314-.78125-2.375 .19667-1.68914-.12334-3.33884-.6875-3.6875-.2387-.14752-.38848-.21927-.46875-.1875zm-3.875.21875c-.15157-.0229-.25125.33441-.28125,1.0625-.0434,1.05416.19895,1.64479.53125,1.3125s.35137-1.18438.0625-1.90625c-.11971-.29915-.22156-.45498-.3125-.46875zm-16.03125,5.8125c-.19782.0658-.34375.78306-.34375,2.1875 0,1.47413.55207,3.55748 1.21875,4.625s1.38036,1.74465 1.59375,1.53125 .0161-.96341-.4375-1.6875-.96892-2.44743-1.15625-3.8125c-.26821-1.95447-.62066-2.92839-.875-2.84375zm20.90625,2.96875c-.0311.002-.0451.0132-.0625.0312-.0697.0721-.0186.27964.15625.5625 .34963.56571-.46648,1.83293-1.8125,2.84375-1.73842,1.3055-2.11387,2.05265-1.25,2.59375 .74252.4651 1.34802.14464 1.5625-.84375 .25865-1.19195.56204-1.28589 1.125-.375 .5049.81694.95103.35239 1.28125-1.375 .27502-1.4387.03-2.90314-.53125-3.25-.21046-.13007-.3753-.19434-.46875-.1875zm15.6875,1.96875c-.3474-.0143-.76407.0743-1.125.21875-.79773.31922-.53995.54575.625.59375 1.05416.0434 1.64479-.19896 1.3125-.53125-.16615-.16613-.4651-.26695-.8125-.28125zm-32.34375,1.3125c-.18107.0794-.11561.61666.15625,1.65625 .35361,1.3522.7816,1.81145 1.03125,1.0625 .24048-.72144-.0127-1.7939-.59375-2.375-.27828-.27828-.48511-.39139-.59375-.34375zm23.90625,2.59375c-.88992,0-1.33992.45-1,1s.78992,1 1,1 .66008-.45 1-1-.11008-1-1-1zm-29.21875.0937c-.0843.0843.01.4749.28125,1.1875 .37553.98622.94211,1.52664 1.25,1.21875s-.004-1.10291-.6875-1.78125c-.49381-.49013-.75942-.70933-.84375-.625zm-1.6875,1.9063c-.3637.13344-.22161.74348.40625,1.5 .68469.825 1.40336,1.5 1.59375,1.5s.0978-.675-.21875-1.5-1.03525-1.5-1.59375-1.5c-.0732,0-.13554-.0191-.1875,0zm14.53125.4375c-.1573.0235-.34002.0709-.5625.15625-.85357.32755-1.5625.78384-1.5625,1 0,.80991 1.91274.35646 2.5-.59375 .26276-.42514.0969-.63285-.375-.5625zm-6.96875.9375c-.0982.0199-.15625.0728-.15625.15625 0,.76896 2.75465,3.5476 3.46875,3.5 2.12076-.14138 2.92506.16409 1.6875.65625-1.15087.45768-1.15087.67711 0,1.40625 1.63235,1.03419 2.46191,1.1494 1.53125.21875-.36786-.36787.0573-1.49287.96875-2.5 1.56765-1.73225 1.51126-1.8125-1.0625-1.8125-1.4964,0-3.59241-.49315-4.65625-1.0625-.79788-.42701-1.48658-.62232-1.78125-.5625zm11.21875,2.96875c-.0394.005-.0909.0284-.125.0625-.27312.27309-.23194,1.18253.0937,2.03125 .8651,2.25436 1.56065,1.88293.9375-.5-.25669-.98159-.63058-1.62845-.90625-1.59375zm-12.4375.75c-.3474-.0143-.76407.0743-1.125.21875-.79773.31922-.53995.54575.625.59375 1.05416.0434 1.64479-.19896 1.3125-.53125-.16615-.16612-.4651-.26695-.8125-.28125z" fill="url(#o)"/> <path d="m514.78 468.66 0.15625 0.65625 0.0312 0.15625 0.0937 0.15625s2.3504 3.8594 5.5938 8.4062 7.3499 9.7858 11.031 12.625c10.515 8.1092 23.453 13.15 36.375 15.844 16.136 3.364 33.024 2.2388 49.219 0.0312 11.419-1.5565 23.267-3.7875 33.562-9.3438 4.5104-2.4342 10.05-7.3085 14.531-11.594 4.3909-4.1985 7.6475-7.73 7.7812-7.875l-2.625-0.15625c-1.1208 1.1931-3.2602 3.4362-6.5625 6.5938-4.431 4.2367-9.943 9.058-14.062 11.281-9.9263 5.357-21.526 7.5468-32.875 9.0938-16.102 2.1948-32.789 3.3197-48.562 0.0312-12.692-2.646-25.358-7.6302-35.562-15.5-3.2959-2.5419-7.395-7.7032-10.594-12.188-3.088-4.3292-5.2243-7.8466-5.375-8.0938l-2.1562-0.125z" fill="url(#n)" opacity=".5"/> <path d="m710.33 255.54-8.7638 19.299-50.738 8.3026-117.62-20.295-14.299-10.609 14.76-12.454z" fill="url(#m)" opacity=".5"/> <path d="m710.98 253.88-8.7638 14.299-50.738 8.3026-117.62-20.295-14.299-10.609 14.76-12.454z" fill="url(#l)"/> <path d="m483.16 296.13 207.56 25.83-0.92251-8.3026 7.3801-26.753-23.063-17.528-112.55-15.683-59.041 11.07z" fill="url(#k)"/> <path d="m709.15 254.12-21.969 66.406 1.875 0.6875 21.969-66.406z" fill="url(#j)"/> <path d="m581.69 238.69 119.84 79.312 1.6875-9.3125-112.12-68.906-9.4062-1.0938z" fill="url(#i)" opacity=".5"/> <path d="m520.3 194.93c-0.57164 0.89625-0.30294 2.0665 0.58577 2.6496l243.88 160.03c2.6318 1.7269 6.1534 0.91909 7.8461-1.7348s0.94075-6.1878-1.7348-7.8462l-247.93-153.68c-0.90359-0.56002-2.078-0.31041-2.6496 0.58578z" fill="url(#h)"/> <path d="m482.41 313.34 0.75 3.5312c29.997 4.9556 200.57 24.04 213.44 21.281 0.4388-0.0941 0.87583-0.21259 1.3125-0.3125l0.75-4.2188c-1.2177 0.30988-2.453 0.61033-3.6875 0.875-12.735 2.7303-180.06-15.969-212.56-21.156z" fill="#e82828"/> <path d="m571.66 237.5 124.31 110.97 2.0625-11.312-116.28-98.469-10.094-1.1875z" fill="url(#g)" opacity=".5"/> <path d="m519.75 187.33c-0.69503 0.80423-0.59754 2.0012 0.19782 2.7064l218.27 193.5c2.3554 2.0882 5.9567 1.7963 8.0143-0.58596s1.8226-5.9876-0.58598-8.0143l-223.19-187.8c-0.81351-0.68442-2.0116-0.60666-2.7065 0.19784z" fill="url(#f)"/> <path d="m513 455.53 1.25 5.8438c0.4857 0.70806 0.95984 1.399 1.5 2.1562 3.3687 4.7226 7.4482 10.172 12.25 13.875 11.45 8.8302 25.24 14.133 38.844 16.969 17.219 3.5897 34.771 2.3713 51.25 0.125 11.63-1.5852 24.194-3.8787 35.594-10.031 5.6523-3.0504 11.219-8.1097 15.844-12.531 1.8432-1.7624 3.4298-3.3396 4.75-4.6875l0.875-4.9062c-1.4225 1.4683-3.3854 3.4523-5.625 5.5938-4.6243 4.4216-10.191 9.4808-15.844 12.531-11.4 6.1525-23.964 8.446-35.594 10.031-16.479 2.2463-34.031 3.4647-51.25-0.125-13.604-2.8361-27.394-8.1385-38.844-16.969-4.8018-3.7033-8.8813-9.1524-12.25-13.875-1.0337-1.4492-1.936-2.7767-2.75-4z" fill="#e82828"/> </g> </svg>